<mxfile host="app.diagrams.net" modified="2023-11-23T15:07:13.173Z" agent="Mozilla/5.0 (Windows NT 10.0; Win64; x64) AppleWebKit/537.36 (KHTML, like Gecko) Chrome/119.0.0.0 Safari/537.36" etag="Bxm2Ubpq4uS1I4jhcMxC" version="22.1.3" type="github">
  <diagram name="Page-1" id="2YBvvXClWsGukQMizWep">
    <mxGraphModel dx="3387" dy="1992" grid="1" gridSize="10" guides="1" tooltips="1" connect="1" arrows="1" fold="1" page="1" pageScale="1" pageWidth="850" pageHeight="1100" math="0" shadow="0">
      <root>
        <mxCell id="0" />
        <mxCell id="1" parent="0" />
        <mxCell id="JjVucMFV8raFjN2I7-2m-4" style="edgeStyle=orthogonalEdgeStyle;rounded=0;orthogonalLoop=1;jettySize=auto;html=1;entryX=0;entryY=0.5;entryDx=0;entryDy=0;" parent="1" source="JjVucMFV8raFjN2I7-2m-3" target="JjVucMFV8raFjN2I7-2m-5" edge="1">
          <mxGeometry relative="1" as="geometry">
            <mxPoint x="460" y="210" as="targetPoint" />
          </mxGeometry>
        </mxCell>
        <mxCell id="JjVucMFV8raFjN2I7-2m-3" value="&lt;font color=&quot;#000000&quot;&gt;&lt;b&gt;client&lt;/b&gt;&lt;/font&gt;" style="rounded=1;whiteSpace=wrap;html=1;fillColor=#647687;strokeColor=#314354;fontColor=#ffffff;" parent="1" vertex="1">
          <mxGeometry x="-50" y="180" width="130" height="60" as="geometry" />
        </mxCell>
        <mxCell id="JjVucMFV8raFjN2I7-2m-5" value="&lt;b&gt;request&lt;/b&gt;" style="rounded=1;whiteSpace=wrap;html=1;fillColor=#fa6800;fontColor=#000000;strokeColor=#C73500;" parent="1" vertex="1">
          <mxGeometry x="470" y="180" width="120" height="60" as="geometry" />
        </mxCell>
        <mxCell id="JjVucMFV8raFjN2I7-2m-6" value="&lt;b&gt;&lt;font color=&quot;#000000&quot;&gt;vip tasker&lt;/font&gt;&lt;/b&gt;" style="rounded=1;whiteSpace=wrap;html=1;fillColor=#008a00;fontColor=#ffffff;strokeColor=#005700;" parent="1" vertex="1">
          <mxGeometry x="305" y="60" width="120" height="60" as="geometry" />
        </mxCell>
        <mxCell id="JjVucMFV8raFjN2I7-2m-8" value="" style="endArrow=classic;html=1;rounded=0;exitX=0.75;exitY=1;exitDx=0;exitDy=0;entryX=0.423;entryY=0;entryDx=0;entryDy=0;entryPerimeter=0;" parent="1" source="JjVucMFV8raFjN2I7-2m-6" target="JjVucMFV8raFjN2I7-2m-5" edge="1">
          <mxGeometry width="50" height="50" relative="1" as="geometry">
            <mxPoint x="500" y="200" as="sourcePoint" />
            <mxPoint x="550" y="150" as="targetPoint" />
          </mxGeometry>
        </mxCell>
        <mxCell id="JjVucMFV8raFjN2I7-2m-9" value="tasker" style="rounded=1;whiteSpace=wrap;html=1;" parent="1" vertex="1">
          <mxGeometry x="305" y="-70" width="120" height="60" as="geometry" />
        </mxCell>
        <mxCell id="JjVucMFV8raFjN2I7-2m-10" value="&lt;font color=&quot;#000000&quot;&gt;&lt;b&gt;vip tasker&lt;/b&gt;&lt;/font&gt;" style="rounded=1;whiteSpace=wrap;html=1;fillColor=#008a00;fontColor=#ffffff;strokeColor=#005700;" parent="1" vertex="1">
          <mxGeometry x="610" y="60" width="120" height="60" as="geometry" />
        </mxCell>
        <mxCell id="JjVucMFV8raFjN2I7-2m-12" value="" style="endArrow=classic;html=1;rounded=0;exitX=0.75;exitY=1;exitDx=0;exitDy=0;entryX=0.62;entryY=0;entryDx=0;entryDy=0;entryPerimeter=0;" parent="1" target="JjVucMFV8raFjN2I7-2m-5" edge="1">
          <mxGeometry width="50" height="50" relative="1" as="geometry">
            <mxPoint x="630" y="120" as="sourcePoint" />
            <mxPoint x="757" y="177" as="targetPoint" />
          </mxGeometry>
        </mxCell>
        <mxCell id="JjVucMFV8raFjN2I7-2m-13" value="" style="endArrow=classic;html=1;rounded=0;exitX=0.556;exitY=1.008;exitDx=0;exitDy=0;entryX=0.5;entryY=0;entryDx=0;entryDy=0;exitPerimeter=0;" parent="1" source="JjVucMFV8raFjN2I7-2m-9" target="JjVucMFV8raFjN2I7-2m-5" edge="1">
          <mxGeometry width="50" height="50" relative="1" as="geometry">
            <mxPoint x="343" y="3" as="sourcePoint" />
            <mxPoint x="470" y="60" as="targetPoint" />
          </mxGeometry>
        </mxCell>
        <mxCell id="JjVucMFV8raFjN2I7-2m-14" value="tasker" style="rounded=1;whiteSpace=wrap;html=1;" parent="1" vertex="1">
          <mxGeometry x="530" y="-70" width="120" height="60" as="geometry" />
        </mxCell>
        <mxCell id="JjVucMFV8raFjN2I7-2m-15" value="" style="endArrow=classic;html=1;rounded=0;entryX=0.558;entryY=-0.002;entryDx=0;entryDy=0;entryPerimeter=0;" parent="1" target="JjVucMFV8raFjN2I7-2m-5" edge="1">
          <mxGeometry width="50" height="50" relative="1" as="geometry">
            <mxPoint x="580" y="-10" as="sourcePoint" />
            <mxPoint x="609" y="170" as="targetPoint" />
          </mxGeometry>
        </mxCell>
        <mxCell id="JjVucMFV8raFjN2I7-2m-16" value="&lt;font color=&quot;#000000&quot;&gt;&lt;b&gt;vip tasker&lt;/b&gt;&lt;/font&gt;" style="rounded=1;whiteSpace=wrap;html=1;fillColor=#008a00;fontColor=#ffffff;strokeColor=#005700;" parent="1" vertex="1">
          <mxGeometry x="595" y="470" width="120" height="60" as="geometry" />
        </mxCell>
        <mxCell id="JjVucMFV8raFjN2I7-2m-17" value="&lt;font color=&quot;#000000&quot;&gt;&lt;b&gt;client&lt;/b&gt;&lt;/font&gt;" style="rounded=1;whiteSpace=wrap;html=1;fillColor=#647687;strokeColor=#314354;fontColor=#ffffff;" parent="1" vertex="1">
          <mxGeometry x="355" y="470" width="130" height="60" as="geometry" />
        </mxCell>
        <mxCell id="JjVucMFV8raFjN2I7-2m-21" value="" style="endArrow=classic;html=1;rounded=0;entryX=-0.042;entryY=0.314;entryDx=0;entryDy=0;entryPerimeter=0;" parent="1" target="JjVucMFV8raFjN2I7-2m-16" edge="1">
          <mxGeometry width="50" height="50" relative="1" as="geometry">
            <mxPoint x="495" y="490" as="sourcePoint" />
            <mxPoint x="545" y="440" as="targetPoint" />
          </mxGeometry>
        </mxCell>
        <mxCell id="JjVucMFV8raFjN2I7-2m-23" value="" style="endArrow=classic;html=1;rounded=0;" parent="1" edge="1">
          <mxGeometry width="50" height="50" relative="1" as="geometry">
            <mxPoint x="585" y="510" as="sourcePoint" />
            <mxPoint x="495" y="510" as="targetPoint" />
          </mxGeometry>
        </mxCell>
        <mxCell id="JjVucMFV8raFjN2I7-2m-118" style="edgeStyle=orthogonalEdgeStyle;rounded=0;orthogonalLoop=1;jettySize=auto;html=1;entryX=0.5;entryY=1;entryDx=0;entryDy=0;" parent="1" source="JjVucMFV8raFjN2I7-2m-26" target="JjVucMFV8raFjN2I7-2m-114" edge="1">
          <mxGeometry relative="1" as="geometry" />
        </mxCell>
        <mxCell id="JjVucMFV8raFjN2I7-2m-26" value="&lt;b&gt;&lt;font color=&quot;#000000&quot;&gt;task complete&lt;/font&gt;&lt;/b&gt;" style="rounded=1;whiteSpace=wrap;html=1;fillColor=#008a00;fontColor=#ffffff;strokeColor=#005700;" parent="1" vertex="1">
          <mxGeometry x="480" y="930" width="120" height="60" as="geometry" />
        </mxCell>
        <mxCell id="JjVucMFV8raFjN2I7-2m-28" value="" style="endArrow=classic;html=1;rounded=0;exitX=0.5;exitY=1;exitDx=0;exitDy=0;entryX=0.5;entryY=0;entryDx=0;entryDy=0;" parent="1" source="JjVucMFV8raFjN2I7-2m-17" target="JjVucMFV8raFjN2I7-2m-53" edge="1">
          <mxGeometry width="50" height="50" relative="1" as="geometry">
            <mxPoint x="445" y="600" as="sourcePoint" />
            <mxPoint x="495" y="550" as="targetPoint" />
          </mxGeometry>
        </mxCell>
        <mxCell id="JjVucMFV8raFjN2I7-2m-29" value="" style="endArrow=classic;html=1;rounded=0;exitX=0.535;exitY=1.055;exitDx=0;exitDy=0;exitPerimeter=0;entryX=0.5;entryY=0;entryDx=0;entryDy=0;" parent="1" target="JjVucMFV8raFjN2I7-2m-53" edge="1">
          <mxGeometry width="50" height="50" relative="1" as="geometry">
            <mxPoint x="650.5" y="530" as="sourcePoint" />
            <mxPoint x="545" y="600" as="targetPoint" />
          </mxGeometry>
        </mxCell>
        <mxCell id="JjVucMFV8raFjN2I7-2m-37" style="edgeStyle=orthogonalEdgeStyle;rounded=0;orthogonalLoop=1;jettySize=auto;html=1;" parent="1" source="JjVucMFV8raFjN2I7-2m-31" target="JjVucMFV8raFjN2I7-2m-36" edge="1">
          <mxGeometry relative="1" as="geometry" />
        </mxCell>
        <mxCell id="JjVucMFV8raFjN2I7-2m-31" value="&lt;font color=&quot;#000000&quot;&gt;&lt;b&gt;vip tasker&lt;/b&gt;&lt;/font&gt;" style="rounded=1;whiteSpace=wrap;html=1;fillColor=#008a00;fontColor=#ffffff;strokeColor=#005700;" parent="1" vertex="1">
          <mxGeometry x="580" y="1060" width="120" height="60" as="geometry" />
        </mxCell>
        <mxCell id="JjVucMFV8raFjN2I7-2m-42" style="edgeStyle=orthogonalEdgeStyle;rounded=0;orthogonalLoop=1;jettySize=auto;html=1;entryX=0.5;entryY=0;entryDx=0;entryDy=0;" parent="1" source="JjVucMFV8raFjN2I7-2m-32" target="JjVucMFV8raFjN2I7-2m-35" edge="1">
          <mxGeometry relative="1" as="geometry" />
        </mxCell>
        <mxCell id="JjVucMFV8raFjN2I7-2m-32" value="&lt;font color=&quot;#000000&quot;&gt;&lt;b&gt;client&lt;/b&gt;&lt;/font&gt;" style="rounded=1;whiteSpace=wrap;html=1;fillColor=#647687;strokeColor=#314354;fontColor=#ffffff;" parent="1" vertex="1">
          <mxGeometry x="340" y="1060" width="130" height="60" as="geometry" />
        </mxCell>
        <mxCell id="JjVucMFV8raFjN2I7-2m-33" value="" style="endArrow=classic;html=1;rounded=0;entryX=-0.042;entryY=0.314;entryDx=0;entryDy=0;entryPerimeter=0;" parent="1" edge="1">
          <mxGeometry width="50" height="50" relative="1" as="geometry">
            <mxPoint x="480" y="1080.08" as="sourcePoint" />
            <mxPoint x="575" y="1079.08" as="targetPoint" />
          </mxGeometry>
        </mxCell>
        <mxCell id="JjVucMFV8raFjN2I7-2m-34" value="" style="endArrow=classic;html=1;rounded=0;" parent="1" edge="1">
          <mxGeometry width="50" height="50" relative="1" as="geometry">
            <mxPoint x="570" y="1100.08" as="sourcePoint" />
            <mxPoint x="480" y="1100.08" as="targetPoint" />
          </mxGeometry>
        </mxCell>
        <mxCell id="JjVucMFV8raFjN2I7-2m-35" value="&lt;b&gt;client to tasker comment&lt;/b&gt;" style="rounded=1;whiteSpace=wrap;html=1;fillColor=#fa6800;fontColor=#000000;strokeColor=#C73500;" parent="1" vertex="1">
          <mxGeometry x="340" y="1170" width="120" height="90" as="geometry" />
        </mxCell>
        <mxCell id="JjVucMFV8raFjN2I7-2m-36" value="&lt;b&gt;tasker to client comment&lt;/b&gt;" style="rounded=1;whiteSpace=wrap;html=1;fillColor=#fa6800;fontColor=#000000;strokeColor=#C73500;" parent="1" vertex="1">
          <mxGeometry x="580" y="1170" width="120" height="90" as="geometry" />
        </mxCell>
        <mxCell id="JjVucMFV8raFjN2I7-2m-43" value="" style="endArrow=classic;html=1;rounded=0;exitX=0.5;exitY=1;exitDx=0;exitDy=0;entryX=0.5;entryY=0;entryDx=0;entryDy=0;" parent="1" source="JjVucMFV8raFjN2I7-2m-26" target="JjVucMFV8raFjN2I7-2m-31" edge="1">
          <mxGeometry width="50" height="50" relative="1" as="geometry">
            <mxPoint x="590" y="970" as="sourcePoint" />
            <mxPoint x="640" y="920" as="targetPoint" />
          </mxGeometry>
        </mxCell>
        <mxCell id="JjVucMFV8raFjN2I7-2m-44" value="" style="endArrow=classic;html=1;rounded=0;exitX=0.5;exitY=1;exitDx=0;exitDy=0;entryX=0.5;entryY=0;entryDx=0;entryDy=0;" parent="1" target="JjVucMFV8raFjN2I7-2m-32" edge="1">
          <mxGeometry width="50" height="50" relative="1" as="geometry">
            <mxPoint x="540" y="990" as="sourcePoint" />
            <mxPoint x="640" y="1060" as="targetPoint" />
          </mxGeometry>
        </mxCell>
        <mxCell id="JjVucMFV8raFjN2I7-2m-46" value="Klient öz problemasynyň giňişleýin maglumatyny ýazyp bildiriş goýýar" style="rounded=1;whiteSpace=wrap;html=1;" parent="1" vertex="1">
          <mxGeometry x="185" y="160" width="120" height="100" as="geometry" />
        </mxCell>
        <mxCell id="JjVucMFV8raFjN2I7-2m-48" style="edgeStyle=orthogonalEdgeStyle;rounded=0;orthogonalLoop=1;jettySize=auto;html=1;" parent="1" source="JjVucMFV8raFjN2I7-2m-47" target="JjVucMFV8raFjN2I7-2m-5" edge="1">
          <mxGeometry relative="1" as="geometry" />
        </mxCell>
        <mxCell id="JjVucMFV8raFjN2I7-2m-47" value="Bildirişleri hemme işgärler 5 minutdan soň görip biler. vip işgärler bolsa bildiriş goýulan badyna görip bilerler" style="rounded=1;whiteSpace=wrap;html=1;" parent="1" vertex="1">
          <mxGeometry x="640" y="160" width="120" height="100" as="geometry" />
        </mxCell>
        <mxCell id="JjVucMFV8raFjN2I7-2m-50" value="" style="edgeStyle=orthogonalEdgeStyle;rounded=0;orthogonalLoop=1;jettySize=auto;html=1;" parent="1" source="JjVucMFV8raFjN2I7-2m-5" target="JjVucMFV8raFjN2I7-2m-49" edge="1">
          <mxGeometry relative="1" as="geometry">
            <mxPoint x="530" y="380" as="targetPoint" />
            <mxPoint x="530" y="240" as="sourcePoint" />
          </mxGeometry>
        </mxCell>
        <mxCell id="JjVucMFV8raFjN2I7-2m-51" style="edgeStyle=orthogonalEdgeStyle;rounded=0;orthogonalLoop=1;jettySize=auto;html=1;" parent="1" source="JjVucMFV8raFjN2I7-2m-49" edge="1">
          <mxGeometry relative="1" as="geometry">
            <mxPoint x="535" y="490" as="targetPoint" />
          </mxGeometry>
        </mxCell>
        <mxCell id="JjVucMFV8raFjN2I7-2m-49" value="işçi we klient baha ýagdaýyny, wagtyny we beýleki tehniki problemalary maslahatlaşyp çözuşmeli" style="rounded=1;whiteSpace=wrap;html=1;" parent="1" vertex="1">
          <mxGeometry x="475" y="360" width="120" height="100" as="geometry" />
        </mxCell>
        <mxCell id="JjVucMFV8raFjN2I7-2m-52" value="klient halan işgari saylar" style="rounded=1;whiteSpace=wrap;html=1;" parent="1" vertex="1">
          <mxGeometry x="475" y="270" width="120" height="60" as="geometry" />
        </mxCell>
        <mxCell id="JjVucMFV8raFjN2I7-2m-54" style="edgeStyle=orthogonalEdgeStyle;rounded=0;orthogonalLoop=1;jettySize=auto;html=1;" parent="1" source="JjVucMFV8raFjN2I7-2m-53" edge="1">
          <mxGeometry relative="1" as="geometry">
            <mxPoint x="740" y="640" as="targetPoint" />
          </mxGeometry>
        </mxCell>
        <mxCell id="JjVucMFV8raFjN2I7-2m-60" style="edgeStyle=orthogonalEdgeStyle;rounded=0;orthogonalLoop=1;jettySize=auto;html=1;entryX=0.5;entryY=0;entryDx=0;entryDy=0;" parent="1" source="JjVucMFV8raFjN2I7-2m-53" target="JjVucMFV8raFjN2I7-2m-26" edge="1">
          <mxGeometry relative="1" as="geometry" />
        </mxCell>
        <mxCell id="JjVucMFV8raFjN2I7-2m-53" value="&lt;b&gt;&lt;font color=&quot;#000000&quot;&gt;ussa edilmeli ishi kesgitlap bahany kesgitlemeli&lt;br&gt;we gerekli harytlary belli etmeli&lt;br&gt;&lt;/font&gt;&lt;/b&gt;" style="rounded=1;whiteSpace=wrap;html=1;fillColor=#008a00;fontColor=#ffffff;strokeColor=#005700;" parent="1" vertex="1">
          <mxGeometry x="475" y="600" width="120" height="80" as="geometry" />
        </mxCell>
        <mxCell id="JjVucMFV8raFjN2I7-2m-55" value="gerekli harytlary online dukanyndan zakaz etmek" style="rounded=1;whiteSpace=wrap;html=1;" parent="1" vertex="1">
          <mxGeometry x="750" y="610" width="120" height="60" as="geometry" />
        </mxCell>
        <mxCell id="JjVucMFV8raFjN2I7-2m-56" value="her harytdan prosent gormek" style="rounded=1;whiteSpace=wrap;html=1;" parent="1" vertex="1">
          <mxGeometry x="900" y="610" width="120" height="60" as="geometry" />
        </mxCell>
        <mxCell id="JjVucMFV8raFjN2I7-2m-58" style="edgeStyle=orthogonalEdgeStyle;rounded=0;orthogonalLoop=1;jettySize=auto;html=1;exitX=0.5;exitY=1;exitDx=0;exitDy=0;" parent="1" source="JjVucMFV8raFjN2I7-2m-57" edge="1">
          <mxGeometry relative="1" as="geometry">
            <mxPoint x="830.2857142857147" y="410" as="targetPoint" />
          </mxGeometry>
        </mxCell>
        <mxCell id="JjVucMFV8raFjN2I7-2m-57" value="klientin saylan ussasyna notification barmaly. 15 mindin dowamynda ussa habarlashar yaly etmeli" style="rounded=1;whiteSpace=wrap;html=1;" parent="1" vertex="1">
          <mxGeometry x="770" y="310" width="120" height="100" as="geometry" />
        </mxCell>
        <mxCell id="JjVucMFV8raFjN2I7-2m-59" value="ish tassyklanyanca chatda habarlashmak" style="rounded=1;whiteSpace=wrap;html=1;" parent="1" vertex="1">
          <mxGeometry x="620" y="290" width="120" height="60" as="geometry" />
        </mxCell>
        <mxCell id="JjVucMFV8raFjN2I7-2m-62" value="tasker" style="shape=umlActor;verticalLabelPosition=bottom;verticalAlign=top;html=1;outlineConnect=0;" parent="1" vertex="1">
          <mxGeometry x="250" y="-70" width="30" height="60" as="geometry" />
        </mxCell>
        <mxCell id="JjVucMFV8raFjN2I7-2m-65" value="tasker" style="shape=umlActor;verticalLabelPosition=bottom;verticalAlign=top;html=1;outlineConnect=0;" parent="1" vertex="1">
          <mxGeometry x="665" y="-80" width="30" height="60" as="geometry" />
        </mxCell>
        <mxCell id="JjVucMFV8raFjN2I7-2m-66" value="tasker" style="shape=umlActor;verticalLabelPosition=bottom;verticalAlign=top;html=1;outlineConnect=0;" parent="1" vertex="1">
          <mxGeometry x="740" y="50" width="30" height="60" as="geometry" />
        </mxCell>
        <mxCell id="JjVucMFV8raFjN2I7-2m-67" value="tasker" style="shape=umlActor;verticalLabelPosition=bottom;verticalAlign=top;html=1;outlineConnect=0;" parent="1" vertex="1">
          <mxGeometry x="260" y="60" width="30" height="60" as="geometry" />
        </mxCell>
        <mxCell id="JjVucMFV8raFjN2I7-2m-68" value="client" style="shape=umlActor;verticalLabelPosition=bottom;verticalAlign=top;html=1;outlineConnect=0;" parent="1" vertex="1">
          <mxGeometry x="-100" y="180" width="30" height="60" as="geometry" />
        </mxCell>
        <mxCell id="JjVucMFV8raFjN2I7-2m-69" value="client" style="shape=umlActor;verticalLabelPosition=bottom;verticalAlign=top;html=1;outlineConnect=0;" parent="1" vertex="1">
          <mxGeometry x="385" y="390" width="30" height="60" as="geometry" />
        </mxCell>
        <mxCell id="JjVucMFV8raFjN2I7-2m-70" value="tasker" style="shape=umlActor;verticalLabelPosition=bottom;verticalAlign=top;html=1;outlineConnect=0;" parent="1" vertex="1">
          <mxGeometry x="655" y="390" width="30" height="60" as="geometry" />
        </mxCell>
        <mxCell id="JjVucMFV8raFjN2I7-2m-73" value="List" style="swimlane;fontStyle=0;childLayout=stackLayout;horizontal=1;startSize=30;horizontalStack=0;resizeParent=1;resizeParentMax=0;resizeLast=0;collapsible=1;marginBottom=0;whiteSpace=wrap;html=1;" parent="1" vertex="1">
          <mxGeometry x="-40" y="340" width="140" height="120" as="geometry">
            <mxRectangle x="-40" y="340" width="60" height="30" as="alternateBounds" />
          </mxGeometry>
        </mxCell>
        <mxCell id="JjVucMFV8raFjN2I7-2m-74" value="Item 1" style="text;strokeColor=none;fillColor=none;align=left;verticalAlign=middle;spacingLeft=4;spacingRight=4;overflow=hidden;points=[[0,0.5],[1,0.5]];portConstraint=eastwest;rotatable=0;whiteSpace=wrap;html=1;" parent="JjVucMFV8raFjN2I7-2m-73" vertex="1">
          <mxGeometry y="30" width="140" height="30" as="geometry" />
        </mxCell>
        <mxCell id="JjVucMFV8raFjN2I7-2m-75" value="Item 2" style="text;strokeColor=none;fillColor=none;align=left;verticalAlign=middle;spacingLeft=4;spacingRight=4;overflow=hidden;points=[[0,0.5],[1,0.5]];portConstraint=eastwest;rotatable=0;whiteSpace=wrap;html=1;" parent="JjVucMFV8raFjN2I7-2m-73" vertex="1">
          <mxGeometry y="60" width="140" height="30" as="geometry" />
        </mxCell>
        <mxCell id="JjVucMFV8raFjN2I7-2m-76" value="Item 3" style="text;strokeColor=none;fillColor=none;align=left;verticalAlign=middle;spacingLeft=4;spacingRight=4;overflow=hidden;points=[[0,0.5],[1,0.5]];portConstraint=eastwest;rotatable=0;whiteSpace=wrap;html=1;" parent="JjVucMFV8raFjN2I7-2m-73" vertex="1">
          <mxGeometry y="90" width="140" height="30" as="geometry" />
        </mxCell>
        <mxCell id="JjVucMFV8raFjN2I7-2m-82" value="&lt;b&gt;&lt;font color=&quot;#000000&quot;&gt;Hyzmat bildirishleri&lt;/font&gt;&lt;/b&gt;" style="rounded=1;whiteSpace=wrap;html=1;fillColor=#1ba1e2;strokeColor=#006EAF;fontColor=#ffffff;" parent="1" vertex="1">
          <mxGeometry x="-650" y="-60" width="120" height="60" as="geometry" />
        </mxCell>
        <mxCell id="JjVucMFV8raFjN2I7-2m-83" value="&lt;b&gt;&lt;font color=&quot;#000000&quot;&gt;Hyzmat akkauntlary&lt;/font&gt;&lt;/b&gt;" style="rounded=1;whiteSpace=wrap;html=1;fillColor=#1ba1e2;strokeColor=#006EAF;fontColor=#ffffff;" parent="1" vertex="1">
          <mxGeometry x="-505" y="-60" width="120" height="60" as="geometry" />
        </mxCell>
        <mxCell id="JjVucMFV8raFjN2I7-2m-84" value="&lt;b&gt;&lt;font color=&quot;#000000&quot;&gt;Hyzmat zakaz etmek&lt;/font&gt;&lt;/b&gt;" style="rounded=1;whiteSpace=wrap;html=1;fillColor=#1ba1e2;strokeColor=#006EAF;fontColor=#ffffff;" parent="1" vertex="1">
          <mxGeometry x="-360" y="-60" width="120" height="60" as="geometry" />
        </mxCell>
        <mxCell id="JjVucMFV8raFjN2I7-2m-85" value="&lt;font size=&quot;1&quot; color=&quot;#000000&quot;&gt;&lt;b style=&quot;font-size: 18px;&quot;&gt;&lt;u&gt;go-hyzmat&lt;/u&gt;&lt;/b&gt;&lt;/font&gt;" style="rounded=1;whiteSpace=wrap;html=1;fillColor=#008a00;strokeColor=#005700;fontColor=#ffffff;" parent="1" vertex="1">
          <mxGeometry x="-505" y="-240" width="120" height="60" as="geometry" />
        </mxCell>
        <mxCell id="JjVucMFV8raFjN2I7-2m-86" value="" style="edgeStyle=none;orthogonalLoop=1;jettySize=auto;html=1;rounded=0;exitX=0.5;exitY=1;exitDx=0;exitDy=0;entryX=0.5;entryY=0;entryDx=0;entryDy=0;" parent="1" source="JjVucMFV8raFjN2I7-2m-85" target="JjVucMFV8raFjN2I7-2m-82" edge="1">
          <mxGeometry width="100" relative="1" as="geometry">
            <mxPoint x="-590" y="-160" as="sourcePoint" />
            <mxPoint x="-490" y="-160" as="targetPoint" />
            <Array as="points" />
          </mxGeometry>
        </mxCell>
        <mxCell id="JjVucMFV8raFjN2I7-2m-87" value="" style="edgeStyle=none;orthogonalLoop=1;jettySize=auto;html=1;rounded=0;exitX=0.5;exitY=1;exitDx=0;exitDy=0;entryX=0.5;entryY=0;entryDx=0;entryDy=0;" parent="1" source="JjVucMFV8raFjN2I7-2m-85" target="JjVucMFV8raFjN2I7-2m-83" edge="1">
          <mxGeometry width="100" relative="1" as="geometry">
            <mxPoint x="-435" y="-170" as="sourcePoint" />
            <mxPoint x="-580" y="-50" as="targetPoint" />
            <Array as="points" />
          </mxGeometry>
        </mxCell>
        <mxCell id="JjVucMFV8raFjN2I7-2m-88" value="" style="edgeStyle=none;orthogonalLoop=1;jettySize=auto;html=1;rounded=0;entryX=0.5;entryY=0;entryDx=0;entryDy=0;exitX=0.5;exitY=1;exitDx=0;exitDy=0;" parent="1" source="JjVucMFV8raFjN2I7-2m-85" target="JjVucMFV8raFjN2I7-2m-84" edge="1">
          <mxGeometry width="100" relative="1" as="geometry">
            <mxPoint x="-440" y="-180" as="sourcePoint" />
            <mxPoint x="-435" y="-50" as="targetPoint" />
            <Array as="points" />
          </mxGeometry>
        </mxCell>
        <mxCell id="JjVucMFV8raFjN2I7-2m-91" value="" style="edgeStyle=none;orthogonalLoop=1;jettySize=auto;html=1;shape=flexArrow;rounded=1;startSize=8;endSize=8;exitX=0.5;exitY=1;exitDx=0;exitDy=0;" parent="1" source="JjVucMFV8raFjN2I7-2m-84" edge="1">
          <mxGeometry width="100" relative="1" as="geometry">
            <mxPoint x="-290" y="110" as="sourcePoint" />
            <mxPoint x="-110" y="210" as="targetPoint" />
            <Array as="points" />
          </mxGeometry>
        </mxCell>
        <mxCell id="JjVucMFV8raFjN2I7-2m-96" style="edgeStyle=orthogonalEdgeStyle;rounded=0;orthogonalLoop=1;jettySize=auto;html=1;entryX=0.5;entryY=0;entryDx=0;entryDy=0;" parent="1" source="JjVucMFV8raFjN2I7-2m-92" target="JjVucMFV8raFjN2I7-2m-95" edge="1">
          <mxGeometry relative="1" as="geometry" />
        </mxCell>
        <mxCell id="JjVucMFV8raFjN2I7-2m-92" value="&lt;font color=&quot;#000000&quot;&gt;Halan tasker ya-da hyzmatlary hodurleyan akkauntlary gormek&lt;/font&gt;" style="rounded=1;whiteSpace=wrap;html=1;fillColor=#60a917;fontColor=#ffffff;strokeColor=#2D7600;" parent="1" vertex="1">
          <mxGeometry x="-505" y="80" width="120" height="80" as="geometry" />
        </mxCell>
        <mxCell id="JjVucMFV8raFjN2I7-2m-93" style="edgeStyle=orthogonalEdgeStyle;rounded=0;orthogonalLoop=1;jettySize=auto;html=1;entryX=0.546;entryY=-0.014;entryDx=0;entryDy=0;entryPerimeter=0;" parent="1" source="JjVucMFV8raFjN2I7-2m-83" target="JjVucMFV8raFjN2I7-2m-92" edge="1">
          <mxGeometry relative="1" as="geometry" />
        </mxCell>
        <mxCell id="JjVucMFV8raFjN2I7-2m-109" style="edgeStyle=orthogonalEdgeStyle;rounded=0;orthogonalLoop=1;jettySize=auto;html=1;entryX=0.5;entryY=0;entryDx=0;entryDy=0;" parent="1" source="JjVucMFV8raFjN2I7-2m-94" target="JjVucMFV8raFjN2I7-2m-98" edge="1">
          <mxGeometry relative="1" as="geometry" />
        </mxCell>
        <mxCell id="JjVucMFV8raFjN2I7-2m-94" value="&lt;font color=&quot;#000000&quot;&gt;Saylan akkauntyn bn habarlashyp ishleshmek&lt;/font&gt;" style="rounded=1;whiteSpace=wrap;html=1;fillColor=#60a917;fontColor=#ffffff;strokeColor=#2D7600;" parent="1" vertex="1">
          <mxGeometry x="-505" y="390" width="120" height="80" as="geometry" />
        </mxCell>
        <mxCell id="JjVucMFV8raFjN2I7-2m-95" value="&lt;font color=&quot;#000000&quot;&gt;reytinga we kommetlara gora saylamak&lt;/font&gt;" style="rounded=1;whiteSpace=wrap;html=1;fillColor=#60a917;fontColor=#ffffff;strokeColor=#2D7600;" parent="1" vertex="1">
          <mxGeometry x="-505" y="240" width="120" height="80" as="geometry" />
        </mxCell>
        <mxCell id="JjVucMFV8raFjN2I7-2m-97" style="edgeStyle=orthogonalEdgeStyle;rounded=0;orthogonalLoop=1;jettySize=auto;html=1;entryX=0.535;entryY=-0.037;entryDx=0;entryDy=0;entryPerimeter=0;" parent="1" source="JjVucMFV8raFjN2I7-2m-95" target="JjVucMFV8raFjN2I7-2m-94" edge="1">
          <mxGeometry relative="1" as="geometry" />
        </mxCell>
        <mxCell id="JjVucMFV8raFjN2I7-2m-98" value="&lt;b&gt;&lt;font color=&quot;#000000&quot;&gt;task complete&lt;/font&gt;&lt;/b&gt;" style="rounded=1;whiteSpace=wrap;html=1;fillColor=#008a00;fontColor=#ffffff;strokeColor=#005700;" parent="1" vertex="1">
          <mxGeometry x="-510" y="530" width="120" height="60" as="geometry" />
        </mxCell>
        <mxCell id="JjVucMFV8raFjN2I7-2m-99" style="edgeStyle=orthogonalEdgeStyle;rounded=0;orthogonalLoop=1;jettySize=auto;html=1;" parent="1" source="JjVucMFV8raFjN2I7-2m-100" target="JjVucMFV8raFjN2I7-2m-106" edge="1">
          <mxGeometry relative="1" as="geometry" />
        </mxCell>
        <mxCell id="JjVucMFV8raFjN2I7-2m-100" value="&lt;font color=&quot;#000000&quot;&gt;&lt;b&gt;tasker&lt;/b&gt;&lt;/font&gt;" style="rounded=1;whiteSpace=wrap;html=1;fillColor=#008a00;fontColor=#ffffff;strokeColor=#005700;" parent="1" vertex="1">
          <mxGeometry x="-410" y="660" width="120" height="60" as="geometry" />
        </mxCell>
        <mxCell id="JjVucMFV8raFjN2I7-2m-101" style="edgeStyle=orthogonalEdgeStyle;rounded=0;orthogonalLoop=1;jettySize=auto;html=1;entryX=0.5;entryY=0;entryDx=0;entryDy=0;" parent="1" source="JjVucMFV8raFjN2I7-2m-102" target="JjVucMFV8raFjN2I7-2m-105" edge="1">
          <mxGeometry relative="1" as="geometry" />
        </mxCell>
        <mxCell id="JjVucMFV8raFjN2I7-2m-102" value="&lt;font color=&quot;#000000&quot;&gt;&lt;b&gt;client&lt;/b&gt;&lt;/font&gt;" style="rounded=1;whiteSpace=wrap;html=1;fillColor=#647687;strokeColor=#314354;fontColor=#ffffff;" parent="1" vertex="1">
          <mxGeometry x="-650" y="660" width="130" height="60" as="geometry" />
        </mxCell>
        <mxCell id="JjVucMFV8raFjN2I7-2m-103" value="" style="endArrow=classic;html=1;rounded=0;entryX=-0.042;entryY=0.314;entryDx=0;entryDy=0;entryPerimeter=0;" parent="1" edge="1">
          <mxGeometry width="50" height="50" relative="1" as="geometry">
            <mxPoint x="-510" y="680.0799999999999" as="sourcePoint" />
            <mxPoint x="-415" y="679.0799999999999" as="targetPoint" />
          </mxGeometry>
        </mxCell>
        <mxCell id="JjVucMFV8raFjN2I7-2m-104" value="" style="endArrow=classic;html=1;rounded=0;" parent="1" edge="1">
          <mxGeometry width="50" height="50" relative="1" as="geometry">
            <mxPoint x="-420" y="700.0799999999999" as="sourcePoint" />
            <mxPoint x="-510" y="700.0799999999999" as="targetPoint" />
          </mxGeometry>
        </mxCell>
        <mxCell id="JjVucMFV8raFjN2I7-2m-105" value="&lt;b&gt;client to tasker comment&lt;/b&gt;" style="rounded=1;whiteSpace=wrap;html=1;fillColor=#fa6800;fontColor=#000000;strokeColor=#C73500;" parent="1" vertex="1">
          <mxGeometry x="-650" y="770" width="120" height="90" as="geometry" />
        </mxCell>
        <mxCell id="JjVucMFV8raFjN2I7-2m-106" value="&lt;b&gt;tasker to client comment&lt;/b&gt;" style="rounded=1;whiteSpace=wrap;html=1;fillColor=#fa6800;fontColor=#000000;strokeColor=#C73500;" parent="1" vertex="1">
          <mxGeometry x="-410" y="770" width="120" height="90" as="geometry" />
        </mxCell>
        <mxCell id="JjVucMFV8raFjN2I7-2m-107" value="" style="endArrow=classic;html=1;rounded=0;exitX=0.5;exitY=1;exitDx=0;exitDy=0;entryX=0.5;entryY=0;entryDx=0;entryDy=0;" parent="1" source="JjVucMFV8raFjN2I7-2m-98" target="JjVucMFV8raFjN2I7-2m-100" edge="1">
          <mxGeometry width="50" height="50" relative="1" as="geometry">
            <mxPoint x="-400" y="570" as="sourcePoint" />
            <mxPoint x="-350" y="520" as="targetPoint" />
          </mxGeometry>
        </mxCell>
        <mxCell id="JjVucMFV8raFjN2I7-2m-108" value="" style="endArrow=classic;html=1;rounded=0;exitX=0.5;exitY=1;exitDx=0;exitDy=0;entryX=0.5;entryY=0;entryDx=0;entryDy=0;" parent="1" target="JjVucMFV8raFjN2I7-2m-102" edge="1">
          <mxGeometry width="50" height="50" relative="1" as="geometry">
            <mxPoint x="-450" y="590" as="sourcePoint" />
            <mxPoint x="-350" y="660" as="targetPoint" />
          </mxGeometry>
        </mxCell>
        <mxCell id="JjVucMFV8raFjN2I7-2m-110" value="&lt;b&gt;&lt;font color=&quot;#000000&quot;&gt;Hyzmatyny bildirish hokmunde goymak&lt;/font&gt;&lt;/b&gt;" style="rounded=1;whiteSpace=wrap;html=1;fillColor=#fa6800;strokeColor=#C73500;fontColor=#000000;" parent="1" vertex="1">
          <mxGeometry x="-800" y="70" width="120" height="60" as="geometry" />
        </mxCell>
        <mxCell id="JjVucMFV8raFjN2I7-2m-111" value="" style="edgeStyle=none;orthogonalLoop=1;jettySize=auto;html=1;rounded=0;exitX=0.5;exitY=1;exitDx=0;exitDy=0;entryX=0.5;entryY=0;entryDx=0;entryDy=0;" parent="1" source="JjVucMFV8raFjN2I7-2m-82" target="JjVucMFV8raFjN2I7-2m-110" edge="1">
          <mxGeometry width="100" relative="1" as="geometry">
            <mxPoint x="-770" as="sourcePoint" />
            <mxPoint x="-670" as="targetPoint" />
            <Array as="points" />
          </mxGeometry>
        </mxCell>
        <mxCell id="JjVucMFV8raFjN2I7-2m-112" value="&lt;b&gt;&lt;font color=&quot;#000000&quot;&gt;goyulan bildirishleri islendik ulanyjy gorip biler&lt;/font&gt;&lt;/b&gt;" style="rounded=1;whiteSpace=wrap;html=1;fillColor=#fa6800;strokeColor=#C73500;fontColor=#000000;" parent="1" vertex="1">
          <mxGeometry x="-920" y="190" width="120" height="60" as="geometry" />
        </mxCell>
        <mxCell id="JjVucMFV8raFjN2I7-2m-113" style="edgeStyle=orthogonalEdgeStyle;rounded=0;orthogonalLoop=1;jettySize=auto;html=1;entryX=0.479;entryY=0.003;entryDx=0;entryDy=0;entryPerimeter=0;" parent="1" source="JjVucMFV8raFjN2I7-2m-110" target="JjVucMFV8raFjN2I7-2m-112" edge="1">
          <mxGeometry relative="1" as="geometry" />
        </mxCell>
        <mxCell id="JjVucMFV8raFjN2I7-2m-122" style="edgeStyle=orthogonalEdgeStyle;rounded=0;orthogonalLoop=1;jettySize=auto;html=1;" parent="1" source="JjVucMFV8raFjN2I7-2m-114" target="JjVucMFV8raFjN2I7-2m-121" edge="1">
          <mxGeometry relative="1" as="geometry" />
        </mxCell>
        <mxCell id="JjVucMFV8raFjN2I7-2m-114" value="&lt;b&gt;&lt;font style=&quot;font-size: 20px;&quot;&gt;Konfilikt&lt;/font&gt;&lt;/b&gt;" style="rounded=1;whiteSpace=wrap;html=1;fillColor=#FF7DBE;" parent="1" vertex="1">
          <mxGeometry x="780" y="820" width="120" height="60" as="geometry" />
        </mxCell>
        <mxCell id="JjVucMFV8raFjN2I7-2m-131" style="edgeStyle=orthogonalEdgeStyle;rounded=0;orthogonalLoop=1;jettySize=auto;html=1;entryX=0;entryY=0.5;entryDx=0;entryDy=0;" parent="1" source="JjVucMFV8raFjN2I7-2m-119" target="JjVucMFV8raFjN2I7-2m-129" edge="1">
          <mxGeometry relative="1" as="geometry" />
        </mxCell>
        <mxCell id="JjVucMFV8raFjN2I7-2m-119" value="&lt;b&gt;&lt;font style=&quot;font-size: 12px;&quot;&gt;jan usti bilen cozlushmek&lt;/font&gt;&lt;/b&gt;" style="rounded=1;whiteSpace=wrap;html=1;fillColor=#FF7DBE;" parent="1" vertex="1">
          <mxGeometry x="980" y="730" width="120" height="60" as="geometry" />
        </mxCell>
        <mxCell id="JjVucMFV8raFjN2I7-2m-120" style="edgeStyle=orthogonalEdgeStyle;rounded=0;orthogonalLoop=1;jettySize=auto;html=1;entryX=0.556;entryY=1.064;entryDx=0;entryDy=0;entryPerimeter=0;" parent="1" source="JjVucMFV8raFjN2I7-2m-114" target="JjVucMFV8raFjN2I7-2m-119" edge="1">
          <mxGeometry relative="1" as="geometry" />
        </mxCell>
        <mxCell id="JjVucMFV8raFjN2I7-2m-132" style="edgeStyle=orthogonalEdgeStyle;rounded=0;orthogonalLoop=1;jettySize=auto;html=1;entryX=0;entryY=0.5;entryDx=0;entryDy=0;" parent="1" source="JjVucMFV8raFjN2I7-2m-121" target="JjVucMFV8raFjN2I7-2m-129" edge="1">
          <mxGeometry relative="1" as="geometry" />
        </mxCell>
        <mxCell id="JjVucMFV8raFjN2I7-2m-121" value="&lt;b&gt;&lt;font style=&quot;font-size: 12px;&quot;&gt;baryp cozlushmek&lt;/font&gt;&lt;/b&gt;" style="rounded=1;whiteSpace=wrap;html=1;fillColor=#FF7DBE;" parent="1" vertex="1">
          <mxGeometry x="990" y="900" width="120" height="60" as="geometry" />
        </mxCell>
        <mxCell id="JjVucMFV8raFjN2I7-2m-123" value="&lt;b&gt;&lt;font style=&quot;font-size: 12px;&quot;&gt;Gunakar ussa&lt;/font&gt;&lt;/b&gt;" style="rounded=1;whiteSpace=wrap;html=1;fillColor=#FF7DBE;" parent="1" vertex="1">
          <mxGeometry x="1480" y="760" width="120" height="60" as="geometry" />
        </mxCell>
        <mxCell id="JjVucMFV8raFjN2I7-2m-124" value="&lt;b&gt;&lt;font style=&quot;font-size: 12px;&quot;&gt;Gunakar klient&lt;/font&gt;&lt;/b&gt;" style="rounded=1;whiteSpace=wrap;html=1;fillColor=#FF7DBE;" parent="1" vertex="1">
          <mxGeometry x="1480" y="885" width="120" height="60" as="geometry" />
        </mxCell>
        <mxCell id="JjVucMFV8raFjN2I7-2m-125" value="&lt;b&gt;&lt;font style=&quot;font-size: 12px;&quot;&gt;klienta kompensatsiya tolemek&lt;/font&gt;&lt;/b&gt;" style="rounded=1;whiteSpace=wrap;html=1;fillColor=#FF7DBE;" parent="1" vertex="1">
          <mxGeometry x="1670" y="650" width="120" height="60" as="geometry" />
        </mxCell>
        <mxCell id="WTvlvGVMSnrdSzxqH13F-11" style="edgeStyle=orthogonalEdgeStyle;rounded=0;orthogonalLoop=1;jettySize=auto;html=1;" edge="1" parent="1" source="JjVucMFV8raFjN2I7-2m-126" target="WTvlvGVMSnrdSzxqH13F-9">
          <mxGeometry relative="1" as="geometry" />
        </mxCell>
        <mxCell id="JjVucMFV8raFjN2I7-2m-126" value="&lt;b&gt;&lt;font style=&quot;font-size: 12px;&quot;&gt;ussa kompensatsiya tolemek&lt;/font&gt;&lt;/b&gt;" style="rounded=1;whiteSpace=wrap;html=1;fillColor=#FF7DBE;" parent="1" vertex="1">
          <mxGeometry x="1660" y="990" width="120" height="60" as="geometry" />
        </mxCell>
        <mxCell id="JjVucMFV8raFjN2I7-2m-127" value="&lt;b&gt;&lt;font color=&quot;#000000&quot;&gt;edilmeli ishi basda surata dushurmek&lt;br&gt;bize hasabat ugratmak&lt;br&gt;&lt;/font&gt;&lt;/b&gt;" style="rounded=1;whiteSpace=wrap;html=1;fillColor=#008a00;fontColor=#ffffff;strokeColor=#005700;" parent="1" vertex="1">
          <mxGeometry x="475" y="730" width="120" height="80" as="geometry" />
        </mxCell>
        <mxCell id="JjVucMFV8raFjN2I7-2m-129" value="Hasabatyn esasynda we ynamdar ussa bn ishi deneshdirip netije cykarmak" style="rounded=1;whiteSpace=wrap;html=1;fillColor=#FF7DBE;" parent="1" vertex="1">
          <mxGeometry x="1250" y="810" width="120" height="60" as="geometry" />
        </mxCell>
        <mxCell id="WTvlvGVMSnrdSzxqH13F-8" style="edgeStyle=orthogonalEdgeStyle;rounded=0;orthogonalLoop=1;jettySize=auto;html=1;entryX=0.5;entryY=1;entryDx=0;entryDy=0;" edge="1" parent="1" source="JjVucMFV8raFjN2I7-2m-133" target="WTvlvGVMSnrdSzxqH13F-6">
          <mxGeometry relative="1" as="geometry" />
        </mxCell>
        <mxCell id="JjVucMFV8raFjN2I7-2m-133" value="&lt;b&gt;&lt;font style=&quot;font-size: 12px;&quot;&gt;ussa duydurysh bermek we reytingina tasir etmek&lt;/font&gt;&lt;/b&gt;" style="rounded=1;whiteSpace=wrap;html=1;fillColor=#FF7DBE;" parent="1" vertex="1">
          <mxGeometry x="1700" y="750" width="120" height="60" as="geometry" />
        </mxCell>
        <mxCell id="JjVucMFV8raFjN2I7-2m-134" value="" style="edgeStyle=none;orthogonalLoop=1;jettySize=auto;html=1;rounded=0;exitX=1;exitY=0.5;exitDx=0;exitDy=0;entryX=0.02;entryY=0.91;entryDx=0;entryDy=0;entryPerimeter=0;" parent="1" source="JjVucMFV8raFjN2I7-2m-123" target="JjVucMFV8raFjN2I7-2m-125" edge="1">
          <mxGeometry width="100" relative="1" as="geometry">
            <mxPoint x="1580" y="710" as="sourcePoint" />
            <mxPoint x="1680" y="710" as="targetPoint" />
            <Array as="points" />
          </mxGeometry>
        </mxCell>
        <mxCell id="JjVucMFV8raFjN2I7-2m-135" value="" style="edgeStyle=none;orthogonalLoop=1;jettySize=auto;html=1;rounded=0;exitX=1;exitY=0.5;exitDx=0;exitDy=0;entryX=0;entryY=0.5;entryDx=0;entryDy=0;" parent="1" source="JjVucMFV8raFjN2I7-2m-123" target="JjVucMFV8raFjN2I7-2m-133" edge="1">
          <mxGeometry width="100" relative="1" as="geometry">
            <mxPoint x="1610" y="800" as="sourcePoint" />
            <mxPoint x="1682" y="715" as="targetPoint" />
            <Array as="points" />
          </mxGeometry>
        </mxCell>
        <mxCell id="WTvlvGVMSnrdSzxqH13F-10" style="edgeStyle=orthogonalEdgeStyle;rounded=0;orthogonalLoop=1;jettySize=auto;html=1;entryX=0;entryY=0.5;entryDx=0;entryDy=0;" edge="1" parent="1" source="JjVucMFV8raFjN2I7-2m-136" target="WTvlvGVMSnrdSzxqH13F-9">
          <mxGeometry relative="1" as="geometry" />
        </mxCell>
        <mxCell id="JjVucMFV8raFjN2I7-2m-136" value="&lt;b&gt;&lt;font style=&quot;font-size: 12px;&quot;&gt;klienta duydurysh bermek we reytingina tasir etmek&lt;/font&gt;&lt;/b&gt;" style="rounded=1;whiteSpace=wrap;html=1;fillColor=#FF7DBE;" parent="1" vertex="1">
          <mxGeometry x="1690" y="880" width="120" height="60" as="geometry" />
        </mxCell>
        <mxCell id="WTvlvGVMSnrdSzxqH13F-1" value="" style="edgeStyle=none;orthogonalLoop=1;jettySize=auto;html=1;rounded=0;exitX=0.999;exitY=0.433;exitDx=0;exitDy=0;exitPerimeter=0;entryX=0;entryY=0.5;entryDx=0;entryDy=0;" edge="1" parent="1" source="JjVucMFV8raFjN2I7-2m-124" target="JjVucMFV8raFjN2I7-2m-136">
          <mxGeometry width="100" relative="1" as="geometry">
            <mxPoint x="1580" y="890" as="sourcePoint" />
            <mxPoint x="1680" y="890" as="targetPoint" />
            <Array as="points" />
          </mxGeometry>
        </mxCell>
        <mxCell id="WTvlvGVMSnrdSzxqH13F-4" value="" style="edgeStyle=none;orthogonalLoop=1;jettySize=auto;html=1;rounded=0;entryX=0;entryY=0.5;entryDx=0;entryDy=0;" edge="1" parent="1" target="JjVucMFV8raFjN2I7-2m-126">
          <mxGeometry width="100" relative="1" as="geometry">
            <mxPoint x="1600" y="910" as="sourcePoint" />
            <mxPoint x="1700" y="920" as="targetPoint" />
            <Array as="points" />
          </mxGeometry>
        </mxCell>
        <mxCell id="WTvlvGVMSnrdSzxqH13F-6" value="&lt;b&gt;&lt;font style=&quot;font-size: 12px;&quot;&gt;biri birine komment goymak&lt;/font&gt;&lt;/b&gt;" style="rounded=1;whiteSpace=wrap;html=1;fillColor=#FF7DBE;" vertex="1" parent="1">
          <mxGeometry x="1880" y="690" width="120" height="60" as="geometry" />
        </mxCell>
        <mxCell id="WTvlvGVMSnrdSzxqH13F-7" style="edgeStyle=orthogonalEdgeStyle;rounded=0;orthogonalLoop=1;jettySize=auto;html=1;entryX=-0.006;entryY=0.576;entryDx=0;entryDy=0;entryPerimeter=0;" edge="1" parent="1" source="JjVucMFV8raFjN2I7-2m-125" target="WTvlvGVMSnrdSzxqH13F-6">
          <mxGeometry relative="1" as="geometry" />
        </mxCell>
        <mxCell id="WTvlvGVMSnrdSzxqH13F-9" value="&lt;b&gt;&lt;font style=&quot;font-size: 12px;&quot;&gt;biri birine komment goymak&lt;/font&gt;&lt;/b&gt;" style="rounded=1;whiteSpace=wrap;html=1;fillColor=#FF7DBE;" vertex="1" parent="1">
          <mxGeometry x="1910" y="930" width="120" height="60" as="geometry" />
        </mxCell>
        <mxCell id="WTvlvGVMSnrdSzxqH13F-12" value="" style="edgeStyle=none;orthogonalLoop=1;jettySize=auto;html=1;rounded=0;exitX=1;exitY=0.5;exitDx=0;exitDy=0;entryX=0.022;entryY=0.417;entryDx=0;entryDy=0;entryPerimeter=0;" edge="1" parent="1" source="JjVucMFV8raFjN2I7-2m-129" target="JjVucMFV8raFjN2I7-2m-123">
          <mxGeometry width="100" relative="1" as="geometry">
            <mxPoint x="1340" y="780" as="sourcePoint" />
            <mxPoint x="1440" y="780" as="targetPoint" />
            <Array as="points" />
          </mxGeometry>
        </mxCell>
        <mxCell id="WTvlvGVMSnrdSzxqH13F-13" value="" style="edgeStyle=none;orthogonalLoop=1;jettySize=auto;html=1;rounded=0;entryX=0;entryY=0.5;entryDx=0;entryDy=0;" edge="1" parent="1" target="JjVucMFV8raFjN2I7-2m-124">
          <mxGeometry width="100" relative="1" as="geometry">
            <mxPoint x="1370" y="840" as="sourcePoint" />
            <mxPoint x="1493" y="795" as="targetPoint" />
            <Array as="points" />
          </mxGeometry>
        </mxCell>
        <mxCell id="WTvlvGVMSnrdSzxqH13F-14" value="&lt;b&gt;&lt;font style=&quot;font-size: 12px;&quot;&gt;Dialog-da konflikt yuze cykdy&lt;/font&gt;&lt;/b&gt;" style="rounded=1;whiteSpace=wrap;html=1;fillColor=#FF7DBE;" vertex="1" parent="1">
          <mxGeometry x="840" y="480" width="120" height="60" as="geometry" />
        </mxCell>
        <mxCell id="WTvlvGVMSnrdSzxqH13F-15" value="" style="edgeStyle=none;orthogonalLoop=1;jettySize=auto;html=1;rounded=0;exitX=0.978;exitY=0.1;exitDx=0;exitDy=0;exitPerimeter=0;entryX=0;entryY=0.5;entryDx=0;entryDy=0;" edge="1" parent="1" source="JjVucMFV8raFjN2I7-2m-53" target="WTvlvGVMSnrdSzxqH13F-14">
          <mxGeometry width="100" relative="1" as="geometry">
            <mxPoint x="620" y="590" as="sourcePoint" />
            <mxPoint x="720" y="590" as="targetPoint" />
            <Array as="points" />
          </mxGeometry>
        </mxCell>
        <mxCell id="WTvlvGVMSnrdSzxqH13F-16" value="&lt;b&gt;chaty seljerip netije cykarmak&lt;/b&gt;" style="rounded=1;whiteSpace=wrap;html=1;fillColor=#FF7DBE;" vertex="1" parent="1">
          <mxGeometry x="1080" y="480" width="120" height="60" as="geometry" />
        </mxCell>
        <mxCell id="WTvlvGVMSnrdSzxqH13F-17" style="edgeStyle=orthogonalEdgeStyle;rounded=0;orthogonalLoop=1;jettySize=auto;html=1;entryX=-0.035;entryY=0.548;entryDx=0;entryDy=0;entryPerimeter=0;" edge="1" parent="1" source="WTvlvGVMSnrdSzxqH13F-14" target="WTvlvGVMSnrdSzxqH13F-16">
          <mxGeometry relative="1" as="geometry" />
        </mxCell>
        <mxCell id="WTvlvGVMSnrdSzxqH13F-18" value="&lt;b style=&quot;border-color: var(--border-color);&quot;&gt;Gunakar ussa&lt;/b&gt;" style="rounded=1;whiteSpace=wrap;html=1;fillColor=#FF7DBE;" vertex="1" parent="1">
          <mxGeometry x="1310" y="410" width="120" height="60" as="geometry" />
        </mxCell>
        <mxCell id="WTvlvGVMSnrdSzxqH13F-19" value="&lt;b style=&quot;border-color: var(--border-color);&quot;&gt;Gunakar klient&lt;/b&gt;" style="rounded=1;whiteSpace=wrap;html=1;fillColor=#FF7DBE;" vertex="1" parent="1">
          <mxGeometry x="1310" y="530" width="120" height="60" as="geometry" />
        </mxCell>
        <mxCell id="WTvlvGVMSnrdSzxqH13F-20" value="&lt;b style=&quot;border-color: var(--border-color);&quot;&gt;Duydurysh berip reytingina tasir etmek&lt;/b&gt;" style="rounded=1;whiteSpace=wrap;html=1;fillColor=#FF7DBE;" vertex="1" parent="1">
          <mxGeometry x="1530" y="370" width="120" height="60" as="geometry" />
        </mxCell>
        <mxCell id="WTvlvGVMSnrdSzxqH13F-21" value="&lt;b style=&quot;border-color: var(--border-color);&quot;&gt;Duydurysh bermek&lt;/b&gt;" style="rounded=1;whiteSpace=wrap;html=1;fillColor=#FF7DBE;" vertex="1" parent="1">
          <mxGeometry x="1540" y="530" width="120" height="60" as="geometry" />
        </mxCell>
        <mxCell id="WTvlvGVMSnrdSzxqH13F-22" value="&lt;b style=&quot;border-color: var(--border-color);&quot;&gt;Duyduryshlar 3-den gecse ulanyjyn akkaundyny hemishelik block etmek&lt;/b&gt;" style="rounded=1;whiteSpace=wrap;html=1;fillColor=#FF7DBE;" vertex="1" parent="1">
          <mxGeometry x="1740" y="490" width="120" height="80" as="geometry" />
        </mxCell>
        <mxCell id="WTvlvGVMSnrdSzxqH13F-23" value="&lt;b style=&quot;border-color: var(--border-color);&quot;&gt;Duyduryshlar 3-den gecse ulanyjyn akkaundyny black lista goshmak we block etmek&lt;/b&gt;" style="rounded=1;whiteSpace=wrap;html=1;fillColor=#FF7DBE;" vertex="1" parent="1">
          <mxGeometry x="1720" y="300" width="120" height="80" as="geometry" />
        </mxCell>
        <mxCell id="WTvlvGVMSnrdSzxqH13F-24" value="" style="edgeStyle=none;orthogonalLoop=1;jettySize=auto;html=1;rounded=0;exitX=1;exitY=0.5;exitDx=0;exitDy=0;entryX=0;entryY=0.5;entryDx=0;entryDy=0;" edge="1" parent="1" source="WTvlvGVMSnrdSzxqH13F-16" target="WTvlvGVMSnrdSzxqH13F-18">
          <mxGeometry width="100" relative="1" as="geometry">
            <mxPoint x="1220" y="490" as="sourcePoint" />
            <mxPoint x="1320" y="490" as="targetPoint" />
            <Array as="points" />
          </mxGeometry>
        </mxCell>
        <mxCell id="WTvlvGVMSnrdSzxqH13F-25" value="" style="edgeStyle=none;orthogonalLoop=1;jettySize=auto;html=1;rounded=0;entryX=0;entryY=0.5;entryDx=0;entryDy=0;" edge="1" parent="1" target="WTvlvGVMSnrdSzxqH13F-19">
          <mxGeometry width="100" relative="1" as="geometry">
            <mxPoint x="1200" y="510" as="sourcePoint" />
            <mxPoint x="1340" y="490" as="targetPoint" />
            <Array as="points" />
          </mxGeometry>
        </mxCell>
        <mxCell id="WTvlvGVMSnrdSzxqH13F-26" value="" style="edgeStyle=none;orthogonalLoop=1;jettySize=auto;html=1;rounded=0;exitX=1.017;exitY=0.406;exitDx=0;exitDy=0;exitPerimeter=0;entryX=0;entryY=0.5;entryDx=0;entryDy=0;" edge="1" parent="1" source="WTvlvGVMSnrdSzxqH13F-18" target="WTvlvGVMSnrdSzxqH13F-20">
          <mxGeometry width="100" relative="1" as="geometry">
            <mxPoint x="1390" y="490" as="sourcePoint" />
            <mxPoint x="1490" y="490" as="targetPoint" />
            <Array as="points" />
          </mxGeometry>
        </mxCell>
        <mxCell id="WTvlvGVMSnrdSzxqH13F-27" value="" style="edgeStyle=none;orthogonalLoop=1;jettySize=auto;html=1;rounded=0;exitX=1;exitY=0.5;exitDx=0;exitDy=0;entryX=0;entryY=0.5;entryDx=0;entryDy=0;" edge="1" parent="1" source="WTvlvGVMSnrdSzxqH13F-19" target="WTvlvGVMSnrdSzxqH13F-21">
          <mxGeometry width="100" relative="1" as="geometry">
            <mxPoint x="1420" y="460" as="sourcePoint" />
            <mxPoint x="1520" y="460" as="targetPoint" />
            <Array as="points" />
          </mxGeometry>
        </mxCell>
        <mxCell id="WTvlvGVMSnrdSzxqH13F-28" value="" style="edgeStyle=none;orthogonalLoop=1;jettySize=auto;html=1;rounded=0;exitX=1;exitY=0.5;exitDx=0;exitDy=0;entryX=0;entryY=0.5;entryDx=0;entryDy=0;" edge="1" parent="1" source="WTvlvGVMSnrdSzxqH13F-20" target="WTvlvGVMSnrdSzxqH13F-23">
          <mxGeometry width="100" relative="1" as="geometry">
            <mxPoint x="1580" y="480" as="sourcePoint" />
            <mxPoint x="1680" y="480" as="targetPoint" />
            <Array as="points" />
          </mxGeometry>
        </mxCell>
        <mxCell id="WTvlvGVMSnrdSzxqH13F-29" value="" style="edgeStyle=none;orthogonalLoop=1;jettySize=auto;html=1;rounded=0;exitX=1;exitY=0.5;exitDx=0;exitDy=0;entryX=0;entryY=0.5;entryDx=0;entryDy=0;" edge="1" parent="1" source="WTvlvGVMSnrdSzxqH13F-21" target="WTvlvGVMSnrdSzxqH13F-22">
          <mxGeometry width="100" relative="1" as="geometry">
            <mxPoint x="1660" y="420" as="sourcePoint" />
            <mxPoint x="1760" y="420" as="targetPoint" />
            <Array as="points" />
          </mxGeometry>
        </mxCell>
      </root>
    </mxGraphModel>
  </diagram>
</mxfile>
